<svg width="215" height="43" viewBox="0 0 215 43" fill="none" xmlns="http://www.w3.org/2000/svg">
<path fill-rule="evenodd" clip-rule="evenodd" d="M36.7457 40.1801H33.9797V38.6727C33.6576 38.7792 33.3406 38.887 33.0265 38.9938C32.2736 39.2498 31.5377 39.5 30.7895 39.7128C30.3018 39.8515 29.8005 39.9392 29.2992 40.027C29.0486 40.0709 28.7979 40.1147 28.549 40.165H24.237C24.0467 40.1305 23.8565 40.0997 23.6662 40.0689C23.2418 40.0003 22.8174 39.9316 22.393 39.8213C21.6361 39.6122 20.8866 39.387 20.1342 39.1611C19.802 39.0613 19.4693 38.9614 19.1352 38.8626C19.1194 38.8767 19.1096 38.896 19.1075 38.9169V40.165H16.3415C16.1399 40.0935 15.9347 40.0321 15.7268 39.9811C13.1325 39.4894 10.7262 38.3066 8.77169 36.5623L8.53125 35.3745V38.5611C8.46403 38.5622 8.39693 38.5551 8.33148 38.54C8.20854 38.4857 8.08868 38.4224 7.96882 38.3561C4.20084 36.288 1.98799 33.0591 0.841619 29.0675C-0.169528 25.5402 -0.191042 21.9435 0.362169 18.3589C0.912307 14.8768 2.29226 11.7414 4.87391 9.19693C5.94207 8.14303 7.18239 7.2718 8.54354 6.61927V10.3034C11.6815 6.75192 14.522 5.26562 19.1229 5.15407V6.45345C24.111 4.46971 29.0469 4.50288 33.995 6.63736V5.14804C38.6266 5.27467 41.6284 6.77001 44.7663 10.3335V6.67354C44.8194 6.67858 44.8719 6.68868 44.9231 6.70368C44.9644 6.72577 45.0059 6.74773 45.0474 6.76967C45.2153 6.85856 45.3824 6.94704 45.5377 7.04134C49.7575 9.49841 51.9181 13.3001 52.8155 17.8946C53.4333 21.0454 53.4333 24.2827 52.8155 27.4335C52.1271 31.0301 50.5935 34.2077 47.7506 36.6799C46.8406 37.4759 45.8191 38.1399 44.7171 38.6516V35.3353C44.6434 35.3353 44.6219 35.3353 44.6157 35.3564C44.5543 35.4137 44.4959 35.474 44.4375 35.5343C42.6234 37.5626 41.1621 39.0204 38.5068 39.7248C38.164 39.816 37.8158 39.9051 37.4661 39.9946L37.4651 39.9949C37.2256 40.0561 36.9854 40.1176 36.7457 40.1801ZM19.1167 33.9846C24.1755 37.2316 29.1053 37.1924 34.0135 33.6199V36.4085C34.1359 36.4214 34.2591 36.4264 34.3823 36.4236C38.9063 36.1041 42.5559 33.8852 44.2524 29.7911C44.4486 29.317 44.6239 28.8415 44.7786 28.3647V33.5475C50.3076 28.8685 50.0526 15.9621 44.7786 11.7505V17.1725C44.6817 16.8612 44.577 16.5501 44.4645 16.2395C43.103 12.4891 39.9789 10.0592 35.9128 9.2723C35.4979 9.19292 35.0829 9.15614 34.6462 9.11743C34.436 9.0988 34.2208 9.07972 33.9981 9.05523V11.6329C29.0807 8.06035 24.1632 8.01512 19.1075 11.2862V8.98589C18.7744 9.04539 18.4477 9.09511 18.127 9.14392C17.4563 9.24599 16.8115 9.34412 16.1878 9.51951C12.4844 10.5596 10.4067 13.0011 9.19889 16.4862C8.82438 17.5635 8.54988 18.6656 8.37563 19.7796L8.50974 11.7987L8.32841 11.6449C8.2464 11.8085 8.14863 11.964 8.03643 12.1092C7.00441 13.2081 6.19409 14.4889 5.64841 15.8838C4.49588 18.775 4.28075 21.8048 4.57272 24.8739C4.74207 27.0683 5.39986 29.1995 6.49974 31.1176C7.02579 32.0388 7.70516 32.8672 8.50974 33.5686L8.37874 25.6376C8.517 26.5154 8.7176 27.3863 8.98068 28.244C10.0041 31.72 11.8635 34.4248 15.4194 35.7513C16.5997 36.183 17.8479 36.4085 19.1075 36.4176L19.1167 33.9846Z" fill="#1C1C1C"/>
<path d="M81.6 9.8H84.984V32.048H97.8V35H81.6V9.8ZM101.051 9.8H104.435V35H101.051V9.8ZM118.492 35.36C116.98 35.36 115.66 35.18 114.532 34.82C113.404 34.46 112.456 33.968 111.688 33.344C110.92 32.696 110.308 31.952 109.852 31.112C109.42 30.248 109.12 29.324 108.952 28.34H112.336C112.456 28.892 112.66 29.42 112.948 29.924C113.236 30.404 113.62 30.824 114.1 31.184C114.604 31.544 115.216 31.832 115.936 32.048C116.656 32.24 117.508 32.336 118.492 32.336C120.508 32.336 122.032 31.952 123.064 31.184C124.12 30.416 124.648 29.468 124.648 28.34C124.648 27.644 124.528 27.056 124.288 26.576C124.072 26.096 123.688 25.676 123.136 25.316C122.608 24.956 121.9 24.632 121.012 24.344C120.148 24.056 119.08 23.768 117.808 23.48C116.392 23.168 115.168 22.832 114.136 22.472C113.128 22.088 112.288 21.62 111.616 21.068C110.968 20.492 110.476 19.808 110.14 19.016C109.828 18.224 109.672 17.252 109.672 16.1C109.672 15.164 109.876 14.3 110.284 13.508C110.692 12.692 111.268 11.984 112.012 11.384C112.78 10.784 113.704 10.316 114.784 9.98C115.888 9.62 117.124 9.44 118.492 9.44C119.836 9.44 121.012 9.62 122.02 9.98C123.028 10.316 123.88 10.784 124.576 11.384C125.296 11.984 125.86 12.692 126.268 13.508C126.676 14.3 126.964 15.164 127.132 16.1H123.748C123.628 15.596 123.448 15.128 123.208 14.696C122.968 14.24 122.632 13.856 122.2 13.544C121.792 13.208 121.276 12.944 120.652 12.752C120.052 12.56 119.332 12.464 118.492 12.464C116.764 12.464 115.42 12.824 114.46 13.544C113.524 14.24 113.056 15.092 113.056 16.1C113.056 16.748 113.176 17.312 113.416 17.792C113.656 18.248 114.028 18.656 114.532 19.016C115.036 19.352 115.672 19.652 116.44 19.916C117.232 20.156 118.168 20.396 119.248 20.636C120.808 20.972 122.14 21.356 123.244 21.788C124.372 22.196 125.284 22.7 125.98 23.3C126.7 23.9 127.216 24.608 127.528 25.424C127.864 26.24 128.032 27.212 128.032 28.34C128.032 29.324 127.816 30.248 127.384 31.112C126.952 31.952 126.328 32.696 125.512 33.344C124.696 33.968 123.7 34.46 122.524 34.82C121.348 35.18 120.004 35.36 118.492 35.36ZM137.675 12.752H128.927V9.8H149.807V12.752H141.059V35H137.675V12.752ZM153.052 9.8H156.436V35H153.052V9.8ZM172.112 35.36C170.6 35.36 169.232 35.144 168.008 34.712C166.808 34.28 165.776 33.62 164.912 32.732C164.048 31.844 163.376 30.728 162.896 29.384C162.44 28.016 162.212 26.408 162.212 24.56V9.8H165.596V24.56C165.596 27.296 166.172 29.276 167.324 30.5C168.476 31.724 170.072 32.336 172.112 32.336C174.152 32.336 175.748 31.724 176.9 30.5C178.052 29.276 178.628 27.296 178.628 24.56V9.8H182.012V24.56C182.012 26.408 181.772 28.016 181.292 29.384C180.836 30.728 180.176 31.844 179.312 32.732C178.448 33.62 177.404 34.28 176.18 34.712C174.98 35.144 173.624 35.36 172.112 35.36ZM187.429 9.8H190.957L199.381 25.82L207.805 9.8H211.189V35H207.805V15.92L200.569 29.6H198.049L190.813 15.92V35H187.429V9.8Z" fill="#1C1C1C"/>
</svg>
