<svg width="47" height="67" viewBox="0 0 47 67" fill="none" xmlns="http://www.w3.org/2000/svg">
<path d="M23.1994 67C19.4257 67 16.085 66.536 13.1773 65.608C10.3315 64.6182 7.91874 63.2572 5.93906 61.5249C4.02124 59.7927 2.53647 57.7512 1.48476 55.4003C0.494921 52.9875 0 50.3273 0 47.4197H11.1357C11.1357 50.5129 12.0946 52.9257 14.0125 54.6579C15.9922 56.3283 19.0545 57.1634 23.1994 57.1634C27.2207 57.1634 30.2211 56.3283 32.2008 54.6579C34.2424 52.9257 35.2632 50.5129 35.2632 47.4197C35.2632 44.2645 34.3352 41.7899 32.4792 39.9958C30.6233 38.1399 27.53 37.2119 23.1994 37.2119H16.7036V27.9321H23.1994C26.9114 27.9321 29.6953 27.1588 31.5512 25.6122C33.4072 24.0037 34.3352 21.7147 34.3352 18.7452C34.3352 15.7756 33.4381 13.5485 31.644 12.0637C29.9118 10.5789 27.097 9.83656 23.1994 9.83656C19.3638 9.83656 16.518 10.6099 14.6621 12.1565C12.868 13.7031 11.9709 15.8684 11.9709 18.6524H0.83518C0.83518 13.0226 2.72207 8.50646 6.49585 5.10388C10.3315 1.70129 15.8994 0 23.1994 0C26.8495 0 30.0665 0.463988 32.8504 1.39196C35.6344 2.31994 37.9543 3.58818 39.8103 5.19667C41.6662 6.7433 43.0582 8.56833 43.9862 10.6717C44.976 12.7752 45.4709 15.0332 45.4709 17.446C45.4709 21.1579 44.4811 24.2821 42.5014 26.8186C40.5217 29.2932 37.7996 31.0563 34.3352 32.108C38.109 33.2216 41.0476 35.1085 43.151 37.7687C45.3163 40.367 46.3989 43.8934 46.3989 48.3476C46.3989 50.946 45.904 53.3897 44.9141 55.6787C43.9243 57.9677 42.4395 59.9474 40.4598 61.6177C38.542 63.2881 36.1293 64.6182 33.2216 65.608C30.3139 66.536 26.9732 67 23.1994 67Z" fill="#1C1C1C"/>
</svg>
