<svg width="49" height="67" viewBox="0 0 49 67" fill="none" xmlns="http://www.w3.org/2000/svg">
<path d="M24.1274 67C20.7248 67 17.5388 66.4741 14.5693 65.4224C11.6616 64.3707 9.12512 62.5766 6.95983 60.0402C4.79455 57.4418 3.09326 54.0083 1.85596 49.7396C0.618652 45.409 0 39.9958 0 33.5V31.644C0 25.6431 0.618652 20.632 1.85596 16.6108C3.09326 12.5277 4.79455 9.27978 6.95983 6.86704C9.12512 4.39243 11.6616 2.62927 14.5693 1.57756C17.5388 0.525854 20.7248 0 24.1274 0C27.53 0 30.6851 0.525854 33.5928 1.57756C36.5623 2.62927 39.1297 4.39243 41.295 6.86704C43.4603 9.27978 45.1616 12.5277 46.3989 16.6108C47.6362 20.632 48.2549 25.6431 48.2549 31.644V33.5C48.2549 39.9958 47.6362 45.409 46.3989 49.7396C45.1616 54.0083 43.4603 57.4418 41.295 60.0402C39.1297 62.5766 36.5623 64.3707 33.5928 65.4224C30.6851 66.4741 27.53 67 24.1274 67ZM24.1274 57.349C25.8597 57.349 27.4991 57.0088 29.0457 56.3283C30.5923 55.6477 31.9534 54.4414 33.1288 52.7091C34.3661 50.9151 35.325 48.4714 36.0055 45.3781C36.7479 42.2849 37.1191 38.3255 37.1191 33.5V31.644C37.1191 27.3135 36.7479 23.7253 36.0055 20.8795C35.325 18.0337 34.3661 15.7756 33.1288 14.1053C31.9534 12.4349 30.5923 11.2904 29.0457 10.6717C27.4991 9.99123 25.8597 9.65097 24.1274 9.65097C22.3952 9.65097 20.7558 9.99123 19.2091 10.6717C17.6625 11.2904 16.2705 12.4349 15.0332 14.1053C13.8578 15.7756 12.8989 18.0337 12.1565 20.8795C11.476 23.7253 11.1357 27.3135 11.1357 31.644V33.5C11.1357 38.3255 11.476 42.2849 12.1565 45.3781C12.8989 48.4714 13.8578 50.9151 15.0332 52.7091C16.2705 54.4414 17.6625 55.6477 19.2091 56.3283C20.7558 57.0088 22.3952 57.349 24.1274 57.349Z" fill="#1C1C1C"/>
</svg>
