<svg width="49" height="67" viewBox="0 0 49 67" fill="none" xmlns="http://www.w3.org/2000/svg">
<path d="M0 58.1421L24.5949 36.8453C26.6053 35.0863 28.3015 33.5157 29.6835 32.1336C31.1285 30.7515 32.2907 29.4637 33.1702 28.27C34.1125 27.0136 34.7722 25.7886 35.1491 24.5949C35.5888 23.4013 35.8087 22.1449 35.8087 20.8256C35.8087 17.6217 34.835 15.0145 32.8875 13.0042C31.0028 10.9939 28.3643 9.98875 24.9719 9.98875C20.9512 9.98875 17.8101 11.0881 15.5485 13.2869C13.3497 15.4229 12.2504 18.721 12.2504 23.1814H0.942335C0.942335 19.7262 1.50774 16.5851 2.63854 13.7581C3.76934 10.8683 5.37131 8.41819 7.44444 6.40788C9.51758 4.33474 12.0305 2.76418 14.9831 1.6962C17.9358 0.5654 21.2654 0 24.9719 0C28.5527 0 31.7253 0.53399 34.4894 1.60197C37.2536 2.60713 39.5466 4.05204 41.3685 5.93671C43.2532 7.75856 44.6667 9.95734 45.609 12.5331C46.6142 15.0459 47.1167 17.8101 47.1167 20.8256C47.1167 23.0872 46.7398 25.2232 45.9859 27.2335C45.2949 29.2438 44.2897 31.1599 42.9705 32.9817C41.714 34.8036 40.1749 36.594 38.353 38.353C36.594 40.1121 34.6465 41.8397 32.5105 43.5359L15.737 57.1997H48.0591V67H0V58.1421Z" fill="#1C1C1C"/>
</svg>
