<svg width="102" height="67" viewBox="0 0 102 67" fill="none" xmlns="http://www.w3.org/2000/svg">
<path d="M24.1081 66.9998C20.2137 66.9998 16.752 66.5667 13.7231 65.7006C10.7559 64.7727 8.25239 63.5044 6.21247 61.8959C4.17255 60.2256 2.62716 58.2768 1.5763 56.0497C0.525433 53.7607 0 51.2551 0 48.5331C0 44.8212 1.14359 41.5423 3.43077 38.6966C5.77976 35.7889 9.17962 33.7164 13.6303 32.4791C11.9613 31.9223 10.4159 31.18 8.99417 30.252C7.57241 29.324 6.3361 28.2104 5.28524 26.9113C4.23437 25.6121 3.39986 24.1892 2.7817 22.6426C2.16355 21.0341 1.85447 19.3019 1.85447 17.4459C1.85447 14.9713 2.34899 12.6823 3.33804 10.5789C4.32709 8.41364 5.74885 6.55769 7.60332 5.01107C9.5196 3.40257 11.8377 2.16527 14.5576 1.29916C17.3393 0.433055 20.5228 0 24.1081 0C27.6934 0 30.8769 0.433055 33.6586 1.29916C36.4403 2.16527 38.7584 3.40257 40.6129 5.01107C42.5291 6.55769 43.9509 8.41364 44.8781 10.5789C45.8672 12.6823 46.3617 14.9713 46.3617 17.4459C46.3617 21.1578 45.249 24.282 43.0237 26.8185C40.7983 29.3549 38.0166 31.2418 34.6786 32.4791C39.1911 33.902 42.5601 35.9126 44.7854 38.511C47.0726 41.1093 48.2162 44.45 48.2162 48.5331C48.2162 51.2551 47.6908 53.7607 46.6399 56.0497C45.589 58.2768 44.0436 60.2256 42.0037 61.8959C39.9638 63.5044 37.4294 64.7727 34.4004 65.7006C31.4332 66.5667 28.0025 66.9998 24.1081 66.9998ZM24.1081 57.1632C28.497 57.1632 31.7423 56.2971 33.8441 54.5649C36.0076 52.7708 37.0894 50.4818 37.0894 47.6979C37.0894 44.5428 35.8531 42.0373 33.3804 40.1813C30.9078 38.2635 27.817 37.0571 24.1081 36.5622C20.3992 37.0571 17.3084 38.2635 14.8357 40.1813C12.3631 42.0373 11.1268 44.5428 11.1268 47.6979C11.1268 50.4818 12.2086 52.7708 14.3721 54.5649C16.5975 56.2971 19.8428 57.1632 24.1081 57.1632ZM24.1081 28.5816C27.3843 28.0867 30.0424 27.035 32.0823 25.4265C34.184 23.818 35.2349 21.4362 35.2349 18.2811C35.2349 15.4972 34.2149 13.3938 32.175 11.9709C30.1969 10.548 27.5079 9.83654 24.1081 9.83654C20.7082 9.83654 17.9883 10.548 15.9484 11.9709C13.9703 13.3319 12.9813 15.4353 12.9813 18.2811C12.9813 21.4362 14.0321 23.818 16.1339 25.4265C18.2356 27.035 20.8937 28.0867 24.1081 28.5816Z" fill="white"/>
<path fill-rule="evenodd" clip-rule="evenodd" d="M51.2354 0.00292231L51.2354 9.8421C54.3885 9.91219 56.9028 10.6217 58.7781 11.9707C60.818 13.3936 61.838 15.497 61.838 18.2809C61.838 21.436 60.7871 23.8178 58.6854 25.4263C56.7554 26.9481 54.272 27.9716 51.2354 28.4966L51.2354 36.6373C54.7122 37.1731 57.6283 38.3544 59.9835 40.1811C62.4561 42.0371 63.6924 44.5426 63.6924 47.6977C63.6924 50.4816 62.6107 52.7706 60.4471 54.5647C58.43 56.2273 55.3594 57.092 51.2354 57.1589L51.2354 66.9969C54.9141 66.9596 58.1702 66.5275 61.0035 65.7004C64.0324 64.7725 66.5669 63.5042 68.6068 61.8957C70.6467 60.2254 72.1921 58.2766 73.243 56.0495C74.2938 53.7605 74.8193 51.255 74.8193 48.5329C74.8193 44.4498 73.6757 41.1091 71.3885 38.5108C69.1631 35.9124 65.7942 33.9018 61.2816 32.4789C64.6197 31.2416 67.4014 29.3547 69.6267 26.8183C71.8521 24.2818 72.9648 21.1576 72.9648 17.4457C72.9648 14.9711 72.4703 12.6821 71.4812 10.5787C70.554 8.41344 69.1322 6.55749 67.2159 5.01087C65.3615 3.40238 63.0434 2.16508 60.2617 1.29897C57.6163 0.4753 54.6075 0.043285 51.2354 0.00292231Z" fill="white"/>
<path fill-rule="evenodd" clip-rule="evenodd" d="M67 0.000276019H67.313C67.261 9.20062e-05 67.2088 0 67.1565 0C67.1043 0 67.0521 9.20062e-05 67 0.000276019ZM80.4895 2.85416V31.2394C82.6309 30.0934 84.4918 28.6197 86.0721 26.8185C88.2975 24.282 89.4101 21.1578 89.4101 17.4459C89.4101 14.9713 88.9156 12.6823 87.9266 10.5789C86.9993 8.41364 85.5776 6.55769 83.6613 5.01107C82.7228 4.19702 81.6655 3.47806 80.4895 2.85416ZM80.4895 33.4828V64.5829C82.216 63.8287 83.7369 62.933 85.0521 61.8959C87.0921 60.2256 88.6375 58.2768 89.6883 56.0497C90.7392 53.7607 91.2646 51.2551 91.2646 48.5331C91.2646 44.45 90.121 41.1093 87.8339 38.511C86.0889 36.4735 83.6408 34.7975 80.4895 33.4828Z" fill="white"/>
<path fill-rule="evenodd" clip-rule="evenodd" d="M76.8584 66.9998C76.9086 67 76.9589 67.0001 77.0093 67.0001C77.0597 67.0001 77.11 67 77.1602 66.9998H76.8584ZM96.5587 60.3688C97.8016 59.0693 98.7958 57.6296 99.5411 56.05C100.592 53.761 101.117 51.2554 101.117 48.5334C101.117 44.4503 99.9738 41.1096 97.6867 38.5112C97.3386 38.1049 96.9626 37.7129 96.5587 37.3353V60.3688ZM96.5587 26.0408C98.3615 23.6521 99.2629 20.7872 99.2629 17.4462C99.2629 14.9716 98.7684 12.6826 97.7794 10.5792C97.4391 9.78453 97.0322 9.03153 96.5587 8.32019V26.0408Z" fill="white"/>
</svg>
