<svg width="103" height="67" viewBox="0 0 103 67" fill="none" xmlns="http://www.w3.org/2000/svg">
<path d="M24.468 67C21.0174 67 17.7863 66.4741 14.7749 65.4224C11.8262 64.3707 9.25392 62.5766 7.05807 60.0402C4.86223 57.4418 3.13692 54.0083 1.88215 49.7396C0.627384 45.4091 0 39.9958 0 33.5V31.644C0 25.6431 0.627384 20.632 1.88215 16.6108C3.13692 12.5277 4.86223 9.27978 7.05807 6.86704C9.25392 4.39243 11.8262 2.62927 14.7749 1.57756C17.7863 0.525854 21.0174 0 24.468 0C27.9186 0 31.1183 0.525854 34.067 1.57756C37.0784 2.62927 39.6821 4.39243 41.8779 6.86704C44.0738 9.27978 45.7991 12.5277 47.0538 16.6108C48.3086 20.632 48.936 25.6431 48.936 31.644V33.5C48.936 39.9958 48.3086 45.4091 47.0538 49.7396C45.7991 54.0083 44.0738 57.4418 41.8779 60.0402C39.6821 62.5766 37.0784 64.3707 34.067 65.4224C31.1183 66.4741 27.9186 67 24.468 67ZM24.468 57.349C26.2247 57.349 27.8872 57.0088 29.4557 56.3283C31.0242 55.6477 32.4044 54.4414 33.5964 52.7091C34.8512 50.9151 35.8236 48.4714 36.5138 45.3781C37.2666 42.2849 37.6431 38.3255 37.6431 33.5V31.644C37.6431 27.3135 37.2666 23.7253 36.5138 20.8795C35.8236 18.0337 34.8512 15.7756 33.5964 14.1053C32.4044 12.4349 31.0242 11.2904 29.4557 10.6717C27.8872 9.99123 26.2247 9.65097 24.468 9.65097C22.7113 9.65097 21.0487 9.99123 19.4803 10.6717C17.9118 11.2904 16.5002 12.4349 15.2454 14.1053C14.0534 15.7756 13.081 18.0337 12.3281 20.8795C11.638 23.7253 11.2929 27.3135 11.2929 31.644V33.5C11.2929 38.3255 11.638 42.2849 12.3281 45.3781C13.081 48.4714 14.0534 50.9151 15.2454 52.7091C16.5002 54.4414 17.9118 55.6477 19.4803 56.3283C21.0487 57.0088 22.7113 57.349 24.468 57.349Z" fill="#1C1C1C"/>
<path fill-rule="evenodd" clip-rule="evenodd" d="M93.936 60.103C94.4285 59.6555 94.9055 59.182 95.3671 58.6825C97.7344 56.1208 99.5721 52.7846 100.88 48.674C102.251 44.5038 102.936 39.4698 102.936 33.572V31.7847C102.936 26.3039 102.251 21.6274 100.88 17.755C99.5721 13.8827 97.7344 10.7253 95.3671 8.28274C94.9055 7.79481 94.4285 7.33292 93.936 6.89709V60.103Z" fill="#1C1C1C"/>
<path fill-rule="evenodd" clip-rule="evenodd" d="M75.936 61.0883C76.9572 60.3416 77.9122 59.4807 78.8011 58.5054C81.0209 56.0107 82.765 52.714 84.0334 48.6155C85.3018 44.4576 85.936 39.2603 85.936 33.0234V31.2414C85.936 25.4798 85.3018 20.6685 84.0334 16.8076C82.765 12.8873 81.0209 9.76885 78.8011 7.4523C77.9122 6.50083 76.9572 5.6589 75.936 4.92651V61.0883Z" fill="#1C1C1C"/>
<path fill-rule="evenodd" clip-rule="evenodd" d="M47.936 66.0148C50.1464 65.8095 52.2357 65.3366 54.2039 64.5962C56.9851 63.5717 59.3897 61.824 61.4176 59.3532C63.4456 56.8221 65.039 53.4775 66.1978 49.3193C67.3566 45.1008 67.936 39.8278 67.936 33.5001V31.6921C67.936 25.8466 67.3566 20.9652 66.1978 17.048C65.039 13.0706 63.4456 9.90679 61.4176 7.5565C59.3897 5.14595 56.9851 3.42843 54.2039 2.40395C52.2357 1.66351 50.1464 1.19064 47.936 0.985352V10.569C48.6234 10.733 49.2931 10.9643 49.9452 11.2627C51.3937 11.8654 52.6685 12.9802 53.7693 14.6074C54.9282 16.2345 55.8263 18.4341 56.4636 21.2062C57.1589 23.9784 57.5066 27.4737 57.5066 31.6921V33.5001C57.5066 38.2006 57.1589 42.0575 56.4636 45.0707C55.8263 48.0839 54.9282 50.4643 53.7693 52.212C52.6685 53.8993 51.3937 55.0745 49.9452 55.7374C49.2931 56.0358 48.6234 56.2671 47.936 56.4311V66.0148Z" fill="#1C1C1C"/>
</svg>
