<svg width="47" height="67" viewBox="0 0 47 67" fill="none" xmlns="http://www.w3.org/2000/svg">
<path d="M22.616 67C18.7211 67 15.3601 66.4974 12.5331 65.4923C9.76887 64.4871 7.47586 63.1364 5.65401 61.4402C3.83216 59.744 2.45007 57.8279 1.50774 55.692C0.628223 53.4932 0.125645 51.263 0 49.0014H11.308C11.6221 51.263 12.7215 53.1791 14.6062 54.7497C16.5537 56.2574 19.2236 57.0113 22.616 57.0113C26.4482 57.0113 29.4323 55.8804 31.5682 53.6188C33.767 51.3572 34.8664 48.0591 34.8664 43.7243C34.8664 41.2743 34.4895 39.2325 33.7356 37.5992C33.0445 35.903 32.1336 34.5523 31.0028 33.5471C29.872 32.4791 28.5527 31.7253 27.045 31.2855C25.6001 30.7829 24.1238 30.5316 22.616 30.5316C19.9147 30.5316 17.6531 31.0028 15.8312 31.9451C14.0722 32.8875 12.6587 34.1753 11.5907 35.8087H1.4135V0H42.4051V9.80028H12.5331V25.1603C13.978 23.7782 15.6742 22.6789 17.6217 21.8622C19.5692 20.9827 22.0192 20.5429 24.9719 20.5429C28.1758 20.5429 31.0656 21.0455 33.6414 22.0506C36.2799 23.0558 38.5101 24.5321 40.3319 26.4796C42.2166 28.4271 43.6615 30.8458 44.6667 33.7356C45.6718 36.5626 46.1744 39.8608 46.1744 43.6301C46.1744 47.211 45.609 50.4463 44.4782 53.3361C43.3474 56.226 41.7454 58.676 39.6723 60.6864C37.5992 62.6967 35.1177 64.2672 32.2278 65.398C29.338 66.466 26.1341 67 22.616 67Z" fill="#1C1C1C"/>
</svg>
