<svg width="101" height="67" viewBox="0 0 101 67" fill="none" xmlns="http://www.w3.org/2000/svg">
<path d="M23.1994 67C19.4257 67 16.085 66.536 13.1773 65.608C10.3315 64.6182 7.91874 63.2572 5.93906 61.5249C4.02124 59.7927 2.53647 57.7512 1.48476 55.4003C0.494921 52.9875 0 50.3273 0 47.4197H11.1357C11.1357 50.5129 12.0946 52.9257 14.0125 54.6579C15.9922 56.3283 19.0545 57.1634 23.1994 57.1634C27.2207 57.1634 30.2211 56.3283 32.2008 54.6579C34.2424 52.9257 35.2632 50.5129 35.2632 47.4197C35.2632 44.2645 34.3352 41.7899 32.4792 39.9958C30.6233 38.1399 27.53 37.2119 23.1994 37.2119H16.7036V27.9321H23.1994C26.9114 27.9321 29.6953 27.1588 31.5512 25.6122C33.4072 24.0037 34.3352 21.7147 34.3352 18.7452C34.3352 15.7756 33.4381 13.5485 31.644 12.0637C29.9118 10.5789 27.097 9.83656 23.1994 9.83656C19.3638 9.83656 16.518 10.6099 14.6621 12.1565C12.868 13.7031 11.9709 15.8684 11.9709 18.6524H0.83518C0.83518 13.0226 2.72207 8.50646 6.49585 5.10388C10.3315 1.70129 15.8994 0 23.1994 0C26.8495 0 30.0665 0.463988 32.8504 1.39196C35.6343 2.31994 37.9543 3.58818 39.8103 5.19667C41.6662 6.7433 43.0582 8.56833 43.9861 10.6717C44.976 12.7752 45.4709 15.0332 45.4709 17.446C45.4709 21.1579 44.4811 24.2821 42.5014 26.8186C40.5217 29.2932 37.7996 31.0563 34.3352 32.108C38.109 33.2216 41.0476 35.1085 43.151 37.7687C45.3162 40.367 46.3989 43.8934 46.3989 48.3476C46.3989 50.946 45.904 53.3897 44.9141 55.6787C43.9243 57.9677 42.4395 59.9474 40.4598 61.6177C38.542 63.2881 36.1293 64.6182 33.2216 65.608C30.3139 66.536 26.9732 67 23.1994 67Z" fill="white"/>
<path fill-rule="evenodd" clip-rule="evenodd" d="M50.3477 57.1233V66.9756C53.5204 66.8687 56.3675 66.4129 58.889 65.6082C61.7967 64.6184 64.2094 63.2883 66.1272 61.6179C68.1069 59.9475 69.5917 57.9679 70.5815 55.6789C71.5714 53.3898 72.0663 50.9462 72.0663 48.3478C72.0663 43.8935 70.9837 40.3672 68.8184 37.7689C66.715 35.1087 63.7764 33.2218 60.0026 32.1082C63.467 31.0565 66.1891 29.2933 68.1688 26.8187C70.1485 24.2823 71.1383 21.1581 71.1383 17.4462C71.1383 15.0334 70.6434 12.7753 69.6535 10.6719C68.7256 8.56851 67.3336 6.74348 65.4777 5.19686C63.6217 3.58836 61.3017 2.32012 58.5178 1.39215C56.1166 0.591743 53.3932 0.136524 50.3477 0.0264891V9.87523C53.4856 10.0447 55.8069 10.7743 57.3114 12.0639C59.1055 13.5487 60.0026 15.7758 60.0026 18.7453C60.0026 21.7149 59.0746 24.0039 57.2186 25.6124C55.6183 26.946 53.328 27.7046 50.3477 27.8883V37.2508C53.9099 37.4439 56.5096 38.359 58.1466 39.996C60.0026 41.7901 60.9306 44.2647 60.9306 47.4198C60.9306 50.5131 59.9098 52.9258 57.8682 54.6581C56.1396 56.1166 53.6328 56.9383 50.3477 57.1233Z" fill="white"/>
<path fill-rule="evenodd" clip-rule="evenodd" d="M65.1558 0.000141237L65.381 0.000141174C65.3443 4.70581e-05 65.3076 0 65.2708 0C65.2324 0 65.1941 4.7079e-05 65.1558 0.000141237ZM78.0858 2.69183V31.5193C80.7625 30.4454 82.9249 28.8784 84.5728 26.8186C86.5524 24.2821 87.5423 21.1579 87.5423 17.446C87.5423 15.0332 87.0474 12.7752 86.0575 10.6717C85.1295 8.56833 83.7376 6.7433 81.8816 5.19667C80.7799 4.24182 79.5146 3.40687 78.0858 2.69183ZM78.0858 32.6757V64.481C79.7833 63.6749 81.2651 62.7205 82.5312 61.6177C84.5109 59.9474 85.9957 57.9677 86.9855 55.6787C87.9753 53.3897 88.4703 50.946 88.4703 48.3476C88.4703 43.8934 87.3876 40.367 85.2223 37.7687C83.4419 35.517 81.0631 33.8193 78.0858 32.6757Z" fill="white"/>
<path fill-rule="evenodd" clip-rule="evenodd" d="M76.981 1.73985e-05L77.0601 1.74439e-05C77.0472 5.81464e-06 77.0343 0 77.0214 0C77.0079 0 76.9944 5.79949e-06 76.981 1.73985e-05ZM94.7725 6.24046V28.4748C95.332 27.9635 95.849 27.4115 96.3233 26.8186C98.303 24.2821 99.2928 21.1579 99.2928 17.446C99.2928 15.0332 98.7979 12.7752 97.8081 10.6717C97.081 9.02376 96.0692 7.54667 94.7725 6.24046ZM94.7725 35.5148V61.1881C96.5086 59.611 97.8298 57.7745 98.7361 55.6787C99.7259 53.3897 100.221 50.946 100.221 48.3476C100.221 43.8934 99.1382 40.367 96.9729 37.7687C96.3199 36.9429 95.5864 36.1916 94.7725 35.5148Z" fill="white"/>
</svg>
