<svg width="102" height="67" viewBox="0 0 102 67" fill="none" xmlns="http://www.w3.org/2000/svg">
<path d="M24.5914 67C20.7558 67 17.3223 66.4123 14.2909 65.2368C11.2595 64.0614 8.66113 62.2364 6.49584 59.7618C4.39243 57.2872 2.78393 54.163 1.67036 50.3892C0.556787 46.5536 0 42.0065 0 36.7479V34.892C0 28.5817 0.649584 23.2304 1.94875 18.8379C3.24792 14.3837 5.04201 10.7645 7.33103 7.98061C9.62004 5.19668 12.3112 3.18606 15.4044 1.94875C18.4977 0.649584 21.8693 0 25.5194 0C31.0254 0 35.5725 1.2373 39.1607 3.71191C42.7488 6.12465 45.0069 10.0222 45.9349 15.4044H34.7992C34.1187 13.4247 33.0051 12.0018 31.4585 11.1357C29.9118 10.2696 27.9321 9.83656 25.5194 9.83656C23.416 9.83656 21.4672 10.1768 19.6731 10.8573C17.879 11.476 16.3015 12.5896 14.9404 14.1981C13.5794 15.8066 12.4968 18.0028 11.6925 20.7867C10.8883 23.5088 10.4552 26.9732 10.3934 31.1801C11.1976 29.819 12.1874 28.6745 13.3629 27.7465C14.6002 26.7567 15.9303 25.9834 17.3532 25.4266C18.838 24.8079 20.3536 24.3749 21.9003 24.1274C23.4469 23.8181 24.9626 23.6634 26.4474 23.6634C33.0051 23.6634 38.109 25.4575 41.759 29.0457C45.4709 32.6339 47.3269 37.7378 47.3269 44.3573V45.2853C47.3269 48.5023 46.7392 51.4409 45.5637 54.1011C44.4501 56.7613 42.8726 59.0503 40.831 60.9682C38.7895 62.886 36.3767 64.3707 33.5928 65.4224C30.8089 66.4741 27.8084 67 24.5914 67ZM23.849 57.1634C27.5609 57.1634 30.5305 56.0808 32.7576 53.9155C35.0466 51.6884 36.1911 48.8116 36.1911 45.2853V44.3573C36.1911 40.8929 35.0466 38.078 32.7576 35.9127C30.5305 33.6856 27.5609 32.572 23.849 32.572C20.1371 32.572 17.1367 33.6856 14.8476 35.9127C12.6205 38.078 11.5069 40.8929 11.5069 44.3573V45.2853C11.5069 48.8116 12.6205 51.6884 14.8476 53.9155C17.1367 56.0808 20.1371 57.1634 23.849 57.1634Z" fill="#1C1C1C"/>
<path fill-rule="evenodd" clip-rule="evenodd" d="M51.335 8.44808e-05L51.4857 8.4399e-05C51.4595 2.8133e-05 51.4333 0 51.407 0C51.383 0 51.359 2.81603e-05 51.335 8.44808e-05ZM51.5551 0.000299225L51.5551 9.83711C53.9009 9.85453 55.8312 10.2874 57.3461 11.1357C58.8927 12.0018 60.0063 13.4247 60.6868 15.4044H71.8225C70.8946 10.0222 68.6365 6.12465 65.0483 3.71191C61.4923 1.25952 56.9946 0.0223178 51.5551 0.000299225ZM51.5551 23.6776C51.816 23.6681 52.076 23.6634 52.335 23.6634C58.8927 23.6634 63.9966 25.4575 67.6466 29.0457C71.3585 32.6339 73.2145 37.7378 73.2145 44.3573V45.2853C73.2145 48.5023 72.6268 51.4409 71.4513 54.1011C70.3378 56.7613 68.7602 59.0503 66.7187 60.9682C64.6771 62.886 62.2644 64.3707 59.4804 65.4224C57.0093 66.356 54.3675 66.8752 51.5551 66.9801L51.5551 57.0707C54.4311 56.7666 56.7945 55.7148 58.6452 53.9155C60.9343 51.6884 62.0788 48.8116 62.0788 45.2853V44.3573C62.0788 40.8929 60.9343 38.078 58.6452 35.9127C56.7945 34.062 54.4311 32.9802 51.5551 32.6674L51.5551 23.6776Z" fill="#1C1C1C"/>
<path fill-rule="evenodd" clip-rule="evenodd" d="M77.9897 64.1982C79.6594 63.31 81.1675 62.2334 82.5141 60.9684C84.5557 59.0506 86.1332 56.7616 87.2468 54.1014C88.4222 51.4412 89.01 48.5026 89.01 45.2856V44.3576C89.01 37.738 87.154 32.6342 83.4421 29.046C81.8881 27.5184 80.0707 26.3159 77.9897 25.4387V64.1982ZM77.9897 15.4047H87.618C86.69 10.0224 84.4319 6.12492 80.8438 3.71218C79.9517 3.09696 79.0004 2.55822 77.9897 2.09595V15.4047Z" fill="#1C1C1C"/>
<path fill-rule="evenodd" clip-rule="evenodd" d="M79.9751 2.59175e-05L80.0586 2.5866e-05C80.0441 8.62201e-06 80.0295 0 80.015 0C80.0017 0 79.9884 8.63915e-06 79.9751 2.59175e-05ZM93.7849 3.79943V15.4044H100.431C99.5137 10.0868 97.2985 6.21843 93.7849 3.79943ZM93.7849 27.0373V62.2801C94.3204 61.8679 94.8343 61.4306 95.3266 60.9682C97.3682 59.0503 98.9457 56.7613 100.059 54.1011C101.235 51.4409 101.822 48.5023 101.822 45.2853V44.3573C101.822 37.7378 99.9665 32.6339 96.2546 29.0457C95.4944 28.2984 94.6712 27.6289 93.7849 27.0373Z" fill="#1C1C1C"/>
</svg>
