<svg width="104" height="67" viewBox="0 0 104 67" fill="none" xmlns="http://www.w3.org/2000/svg">
<path d="M22.616 67C18.7211 67 15.3601 66.4974 12.5331 65.4923C9.76887 64.4871 7.47586 63.1364 5.65401 61.4402C3.83216 59.744 2.45007 57.8279 1.50774 55.692C0.628223 53.4932 0.125645 51.263 0 49.0014H11.308C11.6221 51.263 12.7215 53.1791 14.6062 54.7497C16.5537 56.2574 19.2236 57.0113 22.616 57.0113C26.4482 57.0113 29.4323 55.8804 31.5682 53.6188C33.767 51.3572 34.8664 48.0591 34.8664 43.7243C34.8664 41.2743 34.4894 39.2325 33.7356 37.5992C33.0445 35.903 32.1336 34.5523 31.0028 33.5471C29.872 32.4791 28.5527 31.7253 27.045 31.2855C25.6001 30.7829 24.1238 30.5316 22.616 30.5316C19.9147 30.5316 17.6531 31.0028 15.8312 31.9452C14.0722 32.8875 12.6587 34.1753 11.5907 35.8087H1.4135V0H42.4051V9.80028H12.5331V25.1603C13.978 23.7782 15.6742 22.6789 17.6217 21.8622C19.5692 20.9827 22.0192 20.5429 24.9719 20.5429C28.1758 20.5429 31.0656 21.0455 33.6413 22.0506C36.2799 23.0558 38.5101 24.5321 40.3319 26.4796C42.2166 28.4271 43.6615 30.8458 44.6667 33.7356C45.6718 36.5626 46.1744 39.8608 46.1744 43.6301C46.1744 47.211 45.609 50.4463 44.4782 53.3361C43.3474 56.226 41.7454 58.676 39.6723 60.6864C37.5992 62.6967 35.1177 64.2672 32.2278 65.398C29.338 66.466 26.1341 67 22.616 67Z" fill="white"/>
<path fill-rule="evenodd" clip-rule="evenodd" d="M48.1191 56.9546C51.265 56.7 53.7679 55.5881 55.6277 53.6188C57.8265 51.3572 58.9259 48.0591 58.9259 43.7243C58.9259 41.2743 58.549 39.2325 57.7951 37.5992C57.1041 35.903 56.1931 34.5523 55.0623 33.5471C53.9315 32.4791 52.6123 31.7253 51.1045 31.2855C50.1239 30.9444 49.1287 30.7191 48.1191 30.6095L48.1191 20.5574C48.4177 20.5477 48.7218 20.5429 49.0314 20.5429C52.2353 20.5429 55.1252 21.0455 57.7009 22.0506C60.3394 23.0558 62.5696 24.5321 64.3915 26.4796C66.2761 28.4271 67.721 30.8458 68.7262 33.7356C69.7314 36.5626 70.2339 39.8608 70.2339 43.6301C70.2339 47.211 69.6685 50.4463 68.5377 53.3361C67.4069 56.226 65.805 58.676 63.7318 60.6864C61.6587 62.6967 59.1772 64.2672 56.2874 65.398C53.7978 66.3181 51.075 66.8419 48.1191 66.9693L48.1191 56.9546ZM48.1191 9.80028H66.4646V0H48.1191V9.80028Z" fill="white"/>
<path fill-rule="evenodd" clip-rule="evenodd" d="M74.1836 54.9196C74.7206 54.5382 75.2185 54.1046 75.6773 53.6188C77.8761 51.3572 78.9755 48.0591 78.9755 43.7243C78.9755 41.2743 78.5985 39.2325 77.8447 37.5992C77.1536 35.903 76.2427 34.5523 75.1119 33.5471C74.8154 33.2671 74.506 33.0087 74.1836 32.7719L74.1836 21.0188C75.4329 21.2662 76.6218 21.6102 77.7504 22.0506C80.389 23.0558 82.6192 24.5321 84.441 26.4796C86.3257 28.4271 87.7706 30.8458 88.7758 33.7356C89.7809 36.5626 90.2835 39.8608 90.2835 43.6301C90.2835 47.211 89.7181 50.4463 88.5873 53.3361C87.4565 56.226 85.8545 58.676 83.7814 60.6864C81.7082 62.6967 79.2268 64.2672 76.3369 65.398C75.6375 65.6565 74.9198 65.8837 74.1836 66.0796L74.1836 54.9196ZM74.1836 9.80028H86.5141V0H74.1836V9.80028Z" fill="white"/>
<path fill-rule="evenodd" clip-rule="evenodd" d="M95.2358 0V9.80028H99.5465V0H95.2358ZM95.2358 24.4757C96.0399 25.0765 96.7857 25.7445 97.4734 26.4796C99.3581 28.4271 100.803 30.8458 101.808 33.7356C102.813 36.5626 103.316 39.8608 103.316 43.6301C103.316 47.211 102.75 50.4463 101.62 53.3361C100.489 56.226 98.8869 58.676 96.8138 60.6864C96.3117 61.1732 95.7858 61.6342 95.2358 62.0694L95.2358 24.4757Z" fill="white"/>
</svg>
