<svg width="49" height="67" viewBox="0 0 49 67" fill="none" xmlns="http://www.w3.org/2000/svg">
<path d="M24.1082 67C20.2138 67 16.7521 66.567 13.7231 65.7008C10.756 64.7729 8.25241 63.5046 6.21249 61.8961C4.17257 60.2258 2.62717 58.277 1.5763 56.0499C0.525435 53.7609 0 51.2553 0 48.5332C0 44.8213 1.14359 41.5425 3.43078 38.6967C5.77978 35.789 9.17965 33.7165 13.6304 32.4792C11.9614 31.9224 10.416 31.1801 8.9942 30.2521C7.57244 29.3241 6.33612 28.2105 5.28525 26.9114C4.23438 25.6122 3.39987 24.1893 2.78171 22.6427C2.16355 21.0342 1.85447 19.3019 1.85447 17.446C1.85447 14.9714 2.349 12.6824 3.33805 10.5789C4.32711 8.41367 5.74887 6.55771 7.60334 5.01108C9.51964 3.40259 11.8377 2.16528 14.5576 1.29917C17.3393 0.433056 20.5229 0 24.1082 0C27.6935 0 30.877 0.433056 33.6587 1.29917C36.4404 2.16528 38.7585 3.40259 40.613 5.01108C42.5293 6.55771 43.951 8.41367 44.8783 10.5789C45.8673 12.6824 46.3619 14.9714 46.3619 17.446C46.3619 21.1579 45.2492 24.2821 43.0238 26.8186C40.7984 29.355 38.0167 31.2419 34.6787 32.4792C39.1912 33.9021 42.5602 35.9127 44.7856 38.5111C47.0727 41.1094 48.2163 44.4501 48.2163 48.5332C48.2163 51.2553 47.6909 53.7609 46.64 56.0499C45.5892 58.277 44.0438 60.2258 42.0038 61.8961C39.9639 63.5046 37.4295 64.7729 34.4005 65.7008C31.4333 66.567 28.0026 67 24.1082 67ZM24.1082 57.1634C28.4971 57.1634 31.7424 56.2973 33.8442 54.5651C36.0077 52.771 37.0895 50.482 37.0895 47.6981C37.0895 44.5429 35.8532 42.0374 33.3805 40.1814C30.9079 38.2636 27.8171 37.0573 24.1082 36.5623C20.3992 37.0573 17.3084 38.2636 14.8358 40.1814C12.3632 42.0374 11.1268 44.5429 11.1268 47.6981C11.1268 50.482 12.2086 52.771 14.3722 54.5651C16.5975 56.2973 19.8429 57.1634 24.1082 57.1634ZM24.1082 28.5817C27.3844 28.0868 30.0425 27.0351 32.0824 25.4266C34.1841 23.8181 35.235 21.4363 35.235 18.2812C35.235 15.4972 34.2151 13.3938 32.1751 11.9709C30.197 10.548 27.508 9.83657 24.1082 9.83657C20.7083 9.83657 17.9884 10.548 15.9485 11.9709C13.9704 13.332 12.9813 15.4354 12.9813 18.2812C12.9813 21.4363 14.0322 23.8181 16.1339 25.4266C18.2357 27.0351 20.8937 28.0868 24.1082 28.5817Z" fill="#1C1C1C"/>
</svg>
