<svg width="104" height="67" viewBox="0 0 104 67" fill="none" xmlns="http://www.w3.org/2000/svg">
<path d="M0 58.1419L24.5949 36.8452C26.6052 35.0862 28.3014 33.5156 29.6835 32.1336C31.1284 30.7515 32.2906 29.4636 33.1701 28.27C34.1125 27.0135 34.7721 25.7885 35.149 24.5949C35.5888 23.4013 35.8087 22.1448 35.8087 20.8256C35.8087 17.6216 34.8349 15.0145 32.8874 13.0042C31.0028 10.9939 28.3642 9.98873 24.9718 9.98873C20.9512 9.98873 17.8101 11.0881 15.5485 13.2869C13.3497 15.4228 12.2503 18.721 12.2503 23.1814H0.942333C0.942333 19.7262 1.50773 16.5851 2.63853 13.7581C3.76933 10.8682 5.3713 8.41818 7.44443 6.40786C9.51756 4.33473 12.0305 2.76417 14.9831 1.6962C17.9357 0.565399 21.2653 0 24.9718 0C28.5527 0 31.7252 0.533989 34.4894 1.60197C37.2536 2.60712 39.5466 4.05203 41.3684 5.9367C43.2531 7.75854 44.6666 9.95732 45.6089 12.533C46.6141 15.0459 47.1167 17.8101 47.1167 20.8256C47.1167 23.0872 46.7397 25.2231 45.9858 27.2334C45.2948 29.2437 44.2897 31.1598 42.9704 32.9817C41.7139 34.8035 40.1748 36.5939 38.353 38.353C36.5939 40.112 34.6464 41.8396 32.5105 43.5358L15.737 57.1996H48.059V66.9999H0V58.1419Z" fill="#1C1C1C"/>
<path fill-rule="evenodd" clip-rule="evenodd" d="M51.1265 66.9999H77.1308V57.1996H51.1265V66.9999ZM51.1265 52.0532L61.5823 43.5358C63.7183 41.8396 65.6658 40.112 67.4248 38.353C69.2467 36.5939 70.7858 34.8035 72.0422 32.9817C73.3615 31.1598 74.3667 29.2437 75.0577 27.2334C75.8116 25.2231 76.1885 23.0872 76.1885 20.8256C76.1885 17.8101 75.6859 15.0459 74.6808 12.533C73.7384 9.95732 72.3249 7.75854 70.4403 5.9367C68.6184 4.05203 66.3254 2.60712 63.5612 1.60197C60.7971 0.533989 57.6245 0 54.0437 0C53.0438 0 52.0714 0.0411415 51.1265 0.123425V10.2052C52.0411 10.0609 53.0135 9.98873 54.0437 9.98873C57.4361 9.98873 60.0746 10.9939 61.9593 13.0042C63.9068 15.0145 64.8805 17.6216 64.8805 20.8256C64.8805 22.1448 64.6606 23.4013 64.2209 24.5949C63.8439 25.7885 63.1843 27.0135 62.242 28.27C61.3625 29.4636 60.2003 30.7515 58.7553 32.1336C57.3733 33.5156 55.6771 35.0862 53.6668 36.8452L51.1265 39.0449V52.0532Z" fill="#1C1C1C"/>
<path fill-rule="evenodd" clip-rule="evenodd" d="M79.196 67H95.1756V57.1997H79.196V67ZM79.196 43.8871L79.6271 43.5359C81.7631 41.8397 83.7106 40.1121 85.4696 38.3531C87.2914 36.5941 88.8306 34.8036 90.087 32.9818C91.4063 31.1599 92.4114 29.2439 93.1025 27.2336C93.8564 25.2232 94.2333 23.0873 94.2333 20.8257C94.2333 17.8102 93.7307 15.046 92.7256 12.5332C91.7832 9.95745 90.3697 7.75867 88.4851 5.93683C86.6632 4.05216 84.3702 2.60725 81.606 1.6021C80.8345 1.30401 80.0312 1.04753 79.196 0.832641V12.2422C79.4792 12.4778 79.7486 12.7318 80.0041 13.0043C81.9516 15.0146 82.9253 17.6218 82.9253 20.8257C82.9253 22.145 82.7054 23.4014 82.2657 24.595C81.8887 25.7886 81.2291 27.0137 80.2868 28.2701C79.9618 28.7112 79.5982 29.1651 79.196 29.6318V43.8871Z" fill="#1C1C1C"/>
<path fill-rule="evenodd" clip-rule="evenodd" d="M80.1985 1.41072e-05L80.2623 1.40377e-05C80.2517 4.67925e-06 80.2411 0 80.2305 0C80.2199 0 80.2092 4.70239e-06 80.1985 1.41072e-05ZM97.3629 6.69327V34.1741C97.6652 33.7781 97.9539 33.3806 98.2291 32.9817C99.5484 31.1598 100.554 29.2437 101.245 27.2334C101.998 25.2231 102.375 23.0872 102.375 20.8256C102.375 17.8101 101.873 15.0459 100.868 12.533C100.052 10.3042 98.884 8.35761 97.3629 6.69327ZM97.3629 57.1996V66.9999H103.318V57.1996H97.3629Z" fill="#1C1C1C"/>
</svg>
