<svg width="102" height="67" viewBox="0 0 102 67" fill="none" xmlns="http://www.w3.org/2000/svg">
<path d="M22.2715 67C16.5799 67 11.9091 65.7936 8.259 63.3809C4.60896 60.9063 2.31995 56.9778 1.39197 51.5956H12.5277C13.2082 53.5753 14.3527 54.9982 15.9612 55.8643C17.5697 56.7304 19.6731 57.1634 22.2715 57.1634C24.2512 57.1634 26.1071 56.8541 27.8393 56.2355C29.5716 55.5549 31.0873 54.4104 32.3864 52.8019C33.7475 51.1934 34.8301 49.0282 35.6344 46.3061C36.4386 43.5222 36.8717 40.0268 36.9335 35.8199C36.1293 37.181 35.1085 38.3564 33.8712 39.3463C32.6958 40.2742 31.3657 41.0475 29.8809 41.6662C28.458 42.223 26.9732 42.656 25.4266 42.9654C23.88 43.2128 22.3643 43.3366 20.8795 43.3366C14.3218 43.3366 9.18698 41.5425 5.47507 37.9543C1.82502 34.3042 0 29.2004 0 22.6427V21.7147C0 18.4977 0.556787 15.5591 1.67036 12.8989C2.8458 10.2387 4.45429 7.94968 6.49585 6.03185C8.5374 4.11403 10.9501 2.62927 13.7341 1.57756C16.518 0.525854 19.5185 0 22.7355 0C26.633 0 30.0974 0.587719 33.1288 1.76316C36.1602 2.9386 38.7276 4.76362 40.831 7.23823C42.9344 9.65097 44.5429 12.7752 45.6565 16.6108C46.7701 20.4464 47.3269 24.9935 47.3269 30.2521V32.108C47.3269 38.4183 46.6773 43.8006 45.3781 48.2548C44.079 52.6473 42.2849 56.2355 39.9959 59.0194C37.7687 61.8033 35.1394 63.8449 32.108 65.144C29.0766 66.3814 25.7978 67 22.2715 67ZM23.4778 34.428C27.1898 34.428 30.1593 33.3453 32.3864 31.1801C34.6754 28.9529 35.8199 26.1071 35.8199 22.6427V21.7147C35.8199 20.0443 35.5106 18.4977 34.892 17.0748C34.2733 15.59 33.4072 14.3218 32.2936 13.2701C31.2419 12.1565 29.9428 11.3213 28.3961 10.7645C26.9114 10.1459 25.2719 9.83656 23.4778 9.83656C19.7659 9.83656 16.7655 10.9501 14.4765 13.1773C12.2493 15.3426 11.1357 18.1884 11.1357 21.7147V22.6427C11.1357 26.1071 12.2493 28.9529 14.4765 31.1801C16.7655 33.3453 19.7659 34.428 23.4778 34.428Z" fill="#1C1C1C"/>
<path fill-rule="evenodd" clip-rule="evenodd" d="M50.3477 57.1087C51.8006 56.9948 53.1827 56.7038 54.4939 56.2355C56.2262 55.555 57.7419 54.4105 59.041 52.802C60.4021 51.1935 61.4847 49.0282 62.289 46.3061C63.0932 43.5222 63.5263 40.0268 63.5881 35.82C62.7839 37.181 61.7631 38.3565 60.5258 39.3463C59.3504 40.2743 58.0203 41.0476 56.5355 41.6662C55.1126 42.223 53.6278 42.6561 52.0812 42.9654C51.499 43.0586 50.9211 43.1342 50.3477 43.1923L50.3477 34.4268C53.9593 34.3856 56.8571 33.3034 59.041 31.1801C61.33 28.9529 62.4745 26.1071 62.4745 22.6427V21.7147C62.4745 20.0444 62.1652 18.4977 61.5466 17.0748C60.9279 15.5901 60.0618 14.3218 58.9482 13.2701C57.8965 12.1565 56.5974 11.3214 55.0507 10.7646C53.6255 10.1707 52.0578 9.86192 50.3477 9.83809L50.3477 0.0120804C53.8573 0.101208 57.0026 0.684912 59.7834 1.76319C62.8148 2.93863 65.3822 4.76365 67.4856 7.23826C69.589 9.651 71.1975 12.7752 72.3111 16.6108C73.4247 20.4465 73.9815 24.9936 73.9815 30.2521V32.1081C73.9815 38.4183 73.3319 43.8006 72.0327 48.2549C70.7335 52.6473 68.9395 56.2355 66.6504 59.0194C64.4233 61.8034 61.794 63.8449 58.7626 65.1441C56.1425 66.2135 53.3375 66.8208 50.3477 66.9659L50.3477 57.1087Z" fill="#1C1C1C"/>
<path fill-rule="evenodd" clip-rule="evenodd" d="M65.1135 8.85503e-05L65.2687 8.8764e-05C65.2411 2.9588e-05 65.2135 0 65.1858 0C65.1617 0 65.1376 2.95168e-05 65.1135 8.85503e-05ZM79.9643 4.14752C81.175 5.03074 82.2807 6.06097 83.2814 7.23823C85.3848 9.65097 86.9933 12.7752 88.1069 16.6108C89.2204 20.4464 89.7772 24.9935 89.7772 30.2521V32.108C89.7772 38.4183 89.1276 43.8006 87.8285 48.2548C86.5293 52.6473 84.7352 56.2355 82.4462 59.0194C81.668 59.9921 80.8407 60.8742 79.9643 61.6657V4.14752Z" fill="#1C1C1C"/>
<path fill-rule="evenodd" clip-rule="evenodd" d="M76.9812 0.000147873L77.1815 0.000147786C77.1459 4.9262e-05 77.1102 0 77.0746 0C77.0434 0 77.0123 4.92911e-05 76.9812 0.000147873ZM96.7466 9.3191V55.4679C97.9253 53.3698 98.9155 50.9655 99.7172 48.2548C101.016 43.8006 101.666 38.4183 101.666 32.108V30.2521C101.666 24.9935 101.109 20.4464 99.9956 16.6108C99.1789 13.7975 98.0958 11.3669 96.7466 9.3191Z" fill="#1C1C1C"/>
</svg>
