<svg width="48" height="67" viewBox="0 0 48 67" fill="none" xmlns="http://www.w3.org/2000/svg">
<path d="M22.2715 67C16.5799 67 11.9091 65.7936 8.259 63.3809C4.60896 60.9063 2.31995 56.9778 1.39197 51.5956H12.5277C13.2082 53.5753 14.3527 54.9982 15.9612 55.8643C17.5697 56.7304 19.6731 57.1634 22.2715 57.1634C24.2512 57.1634 26.1071 56.8541 27.8393 56.2355C29.5716 55.5549 31.0873 54.4104 32.3864 52.8019C33.7475 51.1934 34.8301 49.0282 35.6344 46.3061C36.4386 43.5222 36.8717 40.0268 36.9335 35.8199C36.1293 37.181 35.1085 38.3564 33.8712 39.3463C32.6958 40.2742 31.3657 41.0475 29.8809 41.6662C28.458 42.223 26.9732 42.656 25.4266 42.9654C23.88 43.2128 22.3643 43.3366 20.8795 43.3366C14.3218 43.3366 9.18698 41.5425 5.47507 37.9543C1.82502 34.3042 0 29.2004 0 22.6427V21.7147C0 18.4977 0.556787 15.5591 1.67036 12.8989C2.8458 10.2387 4.45429 7.94968 6.49585 6.03185C8.5374 4.11403 10.9501 2.62927 13.7341 1.57756C16.518 0.525854 19.5185 0 22.7355 0C26.633 0 30.0974 0.587719 33.1288 1.76316C36.1602 2.9386 38.7276 4.76362 40.831 7.23823C42.9344 9.65097 44.5429 12.7752 45.6565 16.6108C46.7701 20.4464 47.3269 24.9935 47.3269 30.2521V32.108C47.3269 38.4183 46.6773 43.8006 45.3781 48.2548C44.079 52.6473 42.2849 56.2355 39.9959 59.0194C37.7687 61.8033 35.1394 63.8449 32.108 65.144C29.0766 66.3814 25.7978 67 22.2715 67ZM23.4778 34.428C27.1898 34.428 30.1593 33.3453 32.3864 31.1801C34.6754 28.9529 35.8199 26.1071 35.8199 22.6427V21.7147C35.8199 20.0443 35.5106 18.4977 34.892 17.0748C34.2733 15.59 33.4072 14.3218 32.2936 13.2701C31.2419 12.1565 29.9428 11.3213 28.3961 10.7645C26.9114 10.1459 25.2719 9.83656 23.4778 9.83656C19.7659 9.83656 16.7655 10.9501 14.4765 13.1773C12.2493 15.3426 11.1357 18.1884 11.1357 21.7147V22.6427C11.1357 26.1071 12.2493 28.9529 14.4765 31.1801C16.7655 33.3453 19.7659 34.428 23.4778 34.428Z" fill="#1C1C1C"/>
</svg>
