<svg width="48" height="67" viewBox="0 0 48 67" fill="none" xmlns="http://www.w3.org/2000/svg">
<path d="M24.5914 67C20.7558 67 17.3223 66.4123 14.2909 65.2368C11.2595 64.0614 8.66113 62.2364 6.49584 59.7618C4.39243 57.2872 2.78393 54.163 1.67036 50.3892C0.556787 46.5536 0 42.0065 0 36.7479V34.892C0 28.5817 0.649584 23.2304 1.94875 18.8379C3.24792 14.3837 5.04201 10.7645 7.33103 7.98061C9.62004 5.19668 12.3112 3.18606 15.4044 1.94875C18.4977 0.649584 21.8693 0 25.5194 0C31.0254 0 35.5725 1.2373 39.1607 3.71191C42.7488 6.12465 45.0069 10.0222 45.9349 15.4044H34.7992C34.1187 13.4247 33.0051 12.0018 31.4585 11.1357C29.9118 10.2696 27.9321 9.83656 25.5194 9.83656C23.416 9.83656 21.4672 10.1768 19.6731 10.8573C17.879 11.476 16.3015 12.5896 14.9404 14.1981C13.5794 15.8066 12.4968 18.0028 11.6925 20.7867C10.8883 23.5088 10.4552 26.9732 10.3934 31.1801C11.1976 29.819 12.1874 28.6745 13.3629 27.7465C14.6002 26.7567 15.9303 25.9834 17.3532 25.4266C18.838 24.8079 20.3536 24.3749 21.9003 24.1274C23.4469 23.8181 24.9626 23.6634 26.4474 23.6634C33.0051 23.6634 38.109 25.4575 41.759 29.0457C45.4709 32.6339 47.3269 37.7378 47.3269 44.3573V45.2853C47.3269 48.5023 46.7392 51.4409 45.5637 54.1011C44.4501 56.7613 42.8726 59.0503 40.831 60.9682C38.7895 62.886 36.3767 64.3707 33.5928 65.4224C30.8089 66.4741 27.8084 67 24.5914 67ZM23.849 57.1634C27.5609 57.1634 30.5305 56.0808 32.7576 53.9155C35.0466 51.6884 36.1911 48.8116 36.1911 45.2853V44.3573C36.1911 40.8929 35.0466 38.078 32.7576 35.9127C30.5305 33.6856 27.5609 32.572 23.849 32.572C20.1371 32.572 17.1367 33.6856 14.8476 35.9127C12.6205 38.078 11.5069 40.8929 11.5069 44.3573V45.2853C11.5069 48.8116 12.6205 51.6884 14.8476 53.9155C17.1367 56.0808 20.1371 57.1634 23.849 57.1634Z" fill="#1C1C1C"/>
</svg>
