<svg width="743" height="112" viewBox="0 0 743 112" fill="none" xmlns="http://www.w3.org/2000/svg">
<path d="M232 6.41667H245.344V93.9667H295.881V105.583H232V6.41667Z" fill="#1D1D1D"/>
<path d="M308.701 6.41667L322.045 6.41667V105.583H308.701V6.41667Z" fill="#1D1D1D"/>
<path d="M377.472 107C371.51 107 366.305 106.292 361.857 104.875C357.409 103.458 353.671 101.522 350.643 99.0667C347.614 96.5167 345.201 93.5889 343.403 90.2833C341.699 86.8833 340.516 83.2472 339.854 79.375H353.198C353.671 81.5472 354.475 83.625 355.611 85.6083C356.747 87.4972 358.261 89.15 360.154 90.5667C362.141 91.9833 364.554 93.1167 367.393 93.9667C370.233 94.7222 373.592 95.1 377.472 95.1C385.422 95.1 391.431 93.5889 395.501 90.5667C399.665 87.5444 401.747 83.8139 401.747 79.375C401.747 76.6361 401.274 74.3222 400.327 72.4333C399.476 70.5444 397.962 68.8917 395.785 67.475C393.703 66.0583 390.911 64.7833 387.409 63.65C384.002 62.5167 379.791 61.3833 374.775 60.25C369.192 59.0222 364.365 57.7 360.296 56.2833C356.321 54.7722 353.009 52.9306 350.359 50.7583C347.803 48.4917 345.863 45.8 344.538 42.6833C343.308 39.5667 342.693 35.7417 342.693 31.2083C342.693 27.525 343.497 24.125 345.106 21.0083C346.715 17.7972 348.986 15.0111 351.92 12.65C354.949 10.2889 358.592 8.44722 362.851 7.125C367.204 5.70833 372.078 5 377.472 5C382.772 5 387.409 5.70833 391.384 7.125C395.359 8.44722 398.719 10.2889 401.463 12.65C404.302 15.0111 406.526 17.7972 408.135 21.0083C409.744 24.125 410.88 27.525 411.542 31.2083H398.198C397.725 29.225 397.015 27.3833 396.069 25.6833C395.122 23.8889 393.797 22.3778 392.094 21.15C390.485 19.8278 388.45 18.7889 385.99 18.0333C383.624 17.2778 380.785 16.9 377.472 16.9C370.658 16.9 365.359 18.3167 361.573 21.15C357.882 23.8889 356.037 27.2417 356.037 31.2083C356.037 33.7583 356.51 35.9778 357.457 37.8667C358.403 39.6611 359.87 41.2667 361.857 42.6833C363.845 44.0056 366.352 45.1861 369.381 46.225C372.504 47.1695 376.195 48.1139 380.454 49.0583C386.605 50.3806 391.857 51.8917 396.211 53.5917C400.659 55.1972 404.255 57.1806 406.999 59.5417C409.839 61.9028 411.873 64.6889 413.104 67.9C414.428 71.1111 415.091 74.9361 415.091 79.375C415.091 83.2472 414.239 86.8833 412.536 90.2833C410.832 93.5889 408.372 96.5167 405.154 99.0667C401.936 101.522 398.009 103.458 393.372 104.875C388.734 106.292 383.435 107 377.472 107Z" fill="#1D1D1D"/>
<path d="M453.119 18.0333H418.623V6.41667L500.958 6.41667V18.0333H466.463V105.583H453.119V18.0333Z" fill="#1D1D1D"/>
<path d="M513.751 6.41667H527.095V105.583H513.751V6.41667Z" fill="#1D1D1D"/>
<path d="M588.91 107C582.948 107 577.554 106.15 572.727 104.45C567.995 102.75 563.926 100.153 560.519 96.6583C557.112 93.1639 554.462 88.7722 552.569 83.4833C550.771 78.1 549.872 71.7722 549.872 64.5V6.41667H563.216V64.5C563.216 75.2667 565.487 83.0583 570.03 87.875C574.573 92.6917 580.866 95.1 588.91 95.1C596.955 95.1 603.248 92.6917 607.791 87.875C612.333 83.0583 614.605 75.2667 614.605 64.5V6.41667H627.948V64.5C627.948 71.7722 627.002 78.1 625.109 83.4833C623.311 88.7722 620.709 93.1639 617.302 96.6583C613.895 100.153 609.778 102.75 604.951 104.45C600.22 106.15 594.873 107 588.91 107Z" fill="#1D1D1D"/>
<path d="M649.309 6.41667L663.22 6.41667L696.438 69.4583L729.656 6.41667H743V105.583H729.656V30.5L701.123 84.3333H691.186L662.652 30.5V105.583H649.309V6.41667Z" fill="#1D1D1D"/>
<path d="M119.742 112H110.986V107.201C107.523 108.353 104.244 109.553 100.887 110.512C98.5719 111.175 96.1592 111.472 93.795 111.952H80.1453C78.1996 111.597 76.2538 111.367 74.308 110.858C70.8542 109.898 67.4491 108.833 63.9953 107.806C63.9454 107.851 63.9142 107.912 63.9078 107.978C63.9078 109.303 63.9078 110.627 63.9078 111.952H55.1517C54.5136 111.724 53.8642 111.529 53.2059 111.367C44.9935 109.801 37.3764 106.035 31.1894 100.482L27.0059 96.7008V106.846C26.7931 106.849 26.5807 106.827 26.3736 106.779C25.9844 106.606 25.605 106.404 25.2256 106.193C13.2979 99.609 6.29306 89.3295 2.66417 76.6218C-0.536646 65.3921 -0.604748 53.9417 1.14646 42.5297C2.88794 31.444 7.25622 21.4621 15.4285 13.3614C18.8098 10.0062 22.7361 7.23254 27.0449 5.15514V16.8839C36.9781 5.57745 49.3922 0.845639 63.9564 0.490513V4.62725C79.7465 -1.68823 95.3711 -1.58265 111.035 5.21273V0.471317C125.696 0.874433 138.12 5.63504 148.053 16.9799V5.3279C148.221 5.34396 148.388 5.37611 148.549 5.42388C149.211 5.77901 149.882 6.12454 150.495 6.49886C163.853 14.3212 170.692 26.4243 173.533 41.0516C175.489 51.0824 175.489 61.3889 173.533 71.4197C171.354 82.8701 166.499 92.9864 157.5 100.857C154.62 103.391 151.386 105.505 147.898 107.134V96.576C147.664 96.576 147.596 96.576 147.577 96.6432C147.382 96.8256 147.197 97.0175 147.012 97.2095C141.27 103.667 133.722 108.308 125.317 110.551C123.488 111.04 121.61 111.511 119.742 112ZM63.9369 92.2761C79.9508 102.613 95.556 102.488 111.093 91.1148V99.9929C111.481 100.034 111.871 100.05 112.261 100.041C126.582 99.0235 136.719 91.9594 142.089 78.9253C147.927 64.7395 147.927 50.1313 142.761 35.7823C138.451 23.8424 129.977 16.1064 117.106 13.6014C115.16 13.2271 113.214 13.1503 111.044 12.9103V21.1166C95.4781 9.74298 79.9118 9.59901 63.9078 20.0128V12.6896C60.6486 13.275 57.584 13.563 54.6653 14.3884C42.9419 17.6997 35.6744 25.6661 31.851 36.7613C27.6679 48.8621 27.4263 61.9506 31.1602 74.1935C34.3999 85.26 40.9767 93.6774 52.2331 97.9005C55.9691 99.275 59.9205 99.9929 63.9078 100.022L63.9369 92.2761ZM148.092 21.4909V90.8844C165.595 75.9883 164.787 34.8993 148.092 21.4909V21.4909ZM26.9378 21.6445L26.3638 21.155C26.1042 21.6756 25.7947 22.1706 25.4396 22.6331C22.1727 26.1314 19.6076 30.2089 17.8802 34.6498C14.2319 43.8542 13.5508 53.5002 14.4751 63.271C15.0112 70.257 17.0934 77.0422 20.5751 83.1484C22.2404 86.0812 24.3909 88.7186 26.9378 90.9516V21.6445Z" fill="#1D1D1D"/>
</svg>
