<svg width="500" height="923" viewBox="0 0 500 923" fill="none" xmlns="http://www.w3.org/2000/svg">
<path d="M265 567C265 555.954 273.954 547 285 547H480C491.046 547 500 555.954 500 567V762C500 773.046 491.046 782 480 782H285C273.954 782 265 773.046 265 762V567Z" fill="#EBC068"/>
<mask id="mask0_461:45" style="mask-type:alpha" maskUnits="userSpaceOnUse" x="265" y="547" width="235" height="235">
<path d="M265 567C265 555.954 273.954 547 285 547H480C491.046 547 500 555.954 500 567V762C500 773.046 491.046 782 480 782H285C273.954 782 265 773.046 265 762V567Z" fill="#5920E9"/>
</mask>
<g mask="url(#mask0_461:45)">
<path d="M435.731 615.812L470.466 685.594L540.248 720.329L470.466 755.064L435.731 824.845L400.996 755.064L331.215 720.329L400.996 685.594L435.731 615.812Z" fill="#3E664C"/>
</g>
<path d="M0 158C0 146.954 8.9543 138 20 138H215C226.046 138 235 146.954 235 158V353C235 364.046 226.046 373 215 373H20C8.9543 373 0 364.046 0 353L0 158Z" fill="#5086EC"/>
<mask id="mask1_461:45" style="mask-type:alpha" maskUnits="userSpaceOnUse" x="0" y="138" width="235" height="235">
<path d="M0 158C0 146.954 8.9543 138 20 138H215C226.046 138 235 146.954 235 158V353C235 364.046 226.046 373 215 373H20C8.9543 373 0 364.046 0 353L0 158Z" fill="#5920E9"/>
</mask>
<g mask="url(#mask1_461:45)">
<path d="M168.136 221.094L195.265 242.113L229.569 241.055L239.162 274.006L267.537 293.313L255.929 325.61L267.537 357.908L239.162 377.214L229.569 410.166L195.265 409.107L168.136 430.127L141.006 409.107L106.702 410.166L97.1088 377.214L68.7344 357.908L80.3416 325.61L68.7344 293.313L97.1088 274.006L106.702 241.055L141.006 242.113L168.136 221.094Z" fill="#FABBC1"/>
</g>
<path d="M265 292C265 280.954 273.954 272 285 272H480C491.046 272 500 280.954 500 292V487C500 498.046 491.046 507 480 507H285C273.954 507 265 498.046 265 487V292Z" fill="#EE754A"/>
<mask id="mask2_461:45" style="mask-type:alpha" maskUnits="userSpaceOnUse" x="265" y="272" width="235" height="235">
<path d="M265 292C265 280.954 273.954 272 285 272H480C491.046 272 500 280.954 500 292V487C500 498.046 491.046 507 480 507H285C273.954 507 265 498.046 265 487V292Z" fill="#5920E9"/>
</mask>
<g mask="url(#mask2_461:45)">
<path fill-rule="evenodd" clip-rule="evenodd" d="M535.055 444.68H316.934V439.68H535.055V444.68Z" fill="#EBC068"/>
<path fill-rule="evenodd" clip-rule="evenodd" d="M427.293 551.144L427.293 333.022L432.293 333.022L432.293 551.144L427.293 551.144Z" fill="#EBC068"/>
<path fill-rule="evenodd" clip-rule="evenodd" d="M503.112 519.201L348.877 364.966L352.412 361.43L506.647 515.665L503.112 519.201Z" fill="#EBC068"/>
<path fill-rule="evenodd" clip-rule="evenodd" d="M348.876 519.201L503.111 364.965L506.646 368.501L352.411 522.736L348.876 519.201Z" fill="#EBC068"/>
</g>
<path d="M0 433C0 421.954 8.95431 413 20 413H214.372C225.417 413 234.372 421.954 234.372 433L234.372 627.372C234.372 638.417 225.417 647.372 214.372 647.372H20C8.95433 647.372 0 638.417 0 627.372L0 433Z" fill="#FADBE0"/>
<mask id="mask3_461:45" style="mask-type:alpha" maskUnits="userSpaceOnUse" x="0" y="413" width="235" height="235">
<path d="M0 433C0 421.954 8.95431 413 20 413H214.372C225.417 413 234.372 421.954 234.372 433L234.372 627.372C234.372 638.417 225.417 647.372 214.372 647.372H20C8.95433 647.372 0 638.417 0 627.372L0 433Z" fill="#5920E9"/>
</mask>
<g mask="url(#mask3_461:45)">
<path fill-rule="evenodd" clip-rule="evenodd" d="M268.038 592.987H50.5V567.987H268.038V592.987Z" fill="#EE754A"/>
<path fill-rule="evenodd" clip-rule="evenodd" d="M146.32 688.808L146.32 471.269L171.32 471.269L171.32 688.808L146.32 688.808Z" fill="#EE754A"/>
<path fill-rule="evenodd" clip-rule="evenodd" d="M226.337 665.233L72.5137 511.41L90.1914 493.732L244.014 647.555L226.337 665.233Z" fill="#EE754A"/>
<path fill-rule="evenodd" clip-rule="evenodd" d="M72.5131 644.515L226.336 490.692L244.014 508.37L90.1907 662.193L72.5131 644.515Z" fill="#EE754A"/>
</g>
<path d="M265 20C265 8.9543 273.954 0 285 0L480 0C491.046 0 500 8.9543 500 20V215C500 226.046 491.046 235 480 235H285C273.954 235 265 226.046 265 215V20Z" fill="#5920E9"/>
<mask id="mask4_461:45" style="mask-type:alpha" maskUnits="userSpaceOnUse" x="265" y="0" width="235" height="235">
<path d="M265 20C265 8.9543 273.954 0 285 0L480 0C491.046 0 500 8.9543 500 20V215C500 226.046 491.046 235 480 235H285C273.954 235 265 226.046 265 215V20Z" fill="#5920E9"/>
</mask>
<g mask="url(#mask4_461:45)">
<path d="M455.208 66.2153L472.802 121.946L515.905 82.4792L503.278 139.54L560.339 126.913L520.872 170.016L576.603 187.61L520.872 205.205L560.339 248.308L503.278 235.68L515.905 292.742L472.802 253.275L455.208 309.005L437.613 253.275L394.51 292.742L407.138 235.68L350.076 248.308L389.543 205.205L333.812 187.61L389.543 170.016L350.076 126.913L407.138 139.54L394.51 82.4792L437.613 121.946L455.208 66.2153Z" fill="#FABBC1"/>
</g>
<path d="M0 707.372C0 696.326 8.95431 687.372 20 687.372H215C226.046 687.372 235 696.326 235 707.372V902.372C235 913.417 226.046 922.372 215 922.372H20C8.9543 922.372 0 913.417 0 902.372L0 707.372Z" fill="#EBC068"/>
<mask id="mask5_461:45" style="mask-type:alpha" maskUnits="userSpaceOnUse" x="0" y="687" width="235" height="236">
<path d="M0 707.372C0 696.326 8.95431 687.372 20 687.372H215C226.046 687.372 235 696.326 235 707.372V902.372C235 913.417 226.046 922.372 215 922.372H20C8.9543 922.372 0 913.417 0 902.372L0 707.372Z" fill="#5920E9"/>
</mask>
<g mask="url(#mask5_461:45)">
<path d="M194.102 734.112L220.586 799.622L282.983 766.462L261.162 833.669L330.275 848.374L270.359 885.831L313.851 941.522L243.876 931.703L241.395 1002.32L194.102 949.818L146.81 1002.32L144.329 931.703L74.3541 941.522L117.846 885.831L57.9297 848.374L127.043 833.669L105.222 766.462L167.619 799.622L194.102 734.112Z" fill="#5920E9"/>
</g>
</svg>
