<svg width="26" height="25" viewBox="0 0 26 25" fill="none" xmlns="http://www.w3.org/2000/svg">
<path d="M26 9.57727C25.9104 10.1051 25.8475 10.6329 25.726 11.1514C25.4051 12.5191 24.7605 13.7284 23.9558 14.8461C22.7138 16.5733 21.2036 18.0333 19.6451 19.4406C17.8073 21.0996 15.964 22.7514 14.1152 24.396C13.4064 25.0287 12.6443 25.0557 11.961 24.4415C9.55903 22.2795 7.15066 20.1241 4.77852 17.9278C3.55813 16.7989 2.46232 15.5408 1.56864 14.1078C-0.035036 11.5407 -0.469165 8.79217 0.545922 5.89718C1.46376 3.28126 3.2454 1.57052 5.92137 1.03481C8.69458 0.479295 10.9282 1.51049 12.7015 3.72791C12.7988 3.84865 12.8884 3.97598 13.0066 4.13366C13.1153 3.98984 13.21 3.86052 13.3086 3.73781C14.3364 2.4315 15.5904 1.47486 17.1941 1.08033C19.9908 0.393528 22.9586 1.60813 24.573 4.06967C25.3701 5.28691 25.8119 6.63016 25.9542 8.08755C25.9638 8.1819 25.9847 8.27492 26 8.36795V9.57727ZM13.0028 23.2955C13.0632 23.2447 13.0969 23.2176 13.1299 23.1893C15.2021 21.3294 17.2875 19.4854 19.3425 17.6045C20.7587 16.3087 22.103 14.9351 23.1562 13.2877C24.1599 11.7122 24.6563 9.99754 24.4275 8.09943C24.1802 6.0542 23.3355 4.35072 21.5837 3.27928C19.9508 2.28042 18.227 2.1577 16.4917 3.02C15.4659 3.52999 14.7082 4.36391 14.0764 5.32913C14.0192 5.41622 13.9664 5.50661 13.9111 5.59303C13.4058 6.39859 12.6399 6.39331 12.118 5.60491C11.808 5.1227 11.4638 4.66511 11.0883 4.23592C10.1406 3.18032 8.97553 2.5496 7.57144 2.47702C4.99845 2.34507 2.74072 3.9839 1.93412 6.52856C1.17264 8.93863 1.5305 11.1798 2.85831 13.2785C3.68462 14.5868 4.70161 15.7301 5.81268 16.7752C7.53203 18.3863 9.28825 19.9552 11.0318 21.5379C11.6801 22.1244 12.3373 22.7017 13.0028 23.2955Z" fill="white"/>
</svg>
