<svg width="24" height="25" viewBox="0 0 24 25" fill="none" xmlns="http://www.w3.org/2000/svg">
<path d="M11.9963 24.8861C10.2519 24.8861 8.50768 24.8861 6.76372 24.8861C6.19022 24.8875 5.62208 24.785 5.09195 24.5846C4.56181 24.3841 4.08014 24.0896 3.67462 23.718C3.26909 23.3464 2.94772 22.905 2.72896 22.4192C2.5102 21.9334 2.39838 21.4128 2.39992 20.8873C2.39992 19.3057 2.39992 17.7238 2.39992 16.1417C2.39992 15.5204 3.01603 15.1187 3.60593 15.3556C3.9759 15.5044 4.14413 15.7814 4.14413 16.1524C4.14413 17.7341 4.14413 19.3159 4.14413 20.898C4.14413 21.6828 4.49734 22.3148 5.16371 22.7953C5.60936 23.1187 6.16247 23.2925 6.73094 23.2878C10.2373 23.2878 13.7439 23.2878 17.2508 23.2878C17.5921 23.2868 17.9299 23.2242 18.2449 23.1037C18.5598 22.9831 18.8458 22.8068 19.0864 22.585C19.327 22.3631 19.5176 22.1 19.6472 21.8107C19.7769 21.5213 19.8431 21.2114 19.842 20.8986C19.842 19.3083 19.842 17.718 19.842 16.1277C19.842 15.5311 20.4297 15.1401 21.0116 15.3436C21.3677 15.4684 21.5782 15.7173 21.5797 16.0663C21.5877 17.7648 21.6263 19.4645 21.5695 21.1616C21.5017 23.2177 19.5252 24.8847 17.2486 24.8867C16.3674 24.8867 15.4862 24.8867 14.605 24.8867L11.9963 24.8861Z" fill="white"/>
<path d="M12.0015 2.91048C11.9192 2.98676 11.8477 3.04917 11.7797 3.11851C8.37876 6.41519 4.97879 9.71371 1.57976 13.0141C1.30077 13.2852 0.998874 13.4454 0.598975 13.3206C0.464142 13.2799 0.341846 13.2074 0.243083 13.1096C0.144321 13.0118 0.0721877 12.8917 0.0331711 12.7602C-0.00584542 12.6286 -0.0105223 12.4897 0.0195608 12.356C0.049644 12.2223 0.113544 12.0979 0.205515 11.994C0.262745 11.9247 0.328561 11.8692 0.391514 11.8082L11.261 1.27185C11.7919 0.757305 12.2168 0.757999 12.7505 1.27601C16.3837 4.80013 20.0183 8.3238 23.6543 11.847C23.9362 12.1195 24.0836 12.4177 23.9505 12.8019C23.9064 12.9299 23.8306 13.0456 23.7298 13.1387C23.6289 13.2318 23.5061 13.2995 23.372 13.336C23.2379 13.3725 23.0966 13.3765 22.9605 13.3479C22.8244 13.3192 22.6976 13.2586 22.5913 13.1715C22.5162 13.1112 22.4482 13.0404 22.3767 12.9732C18.9996 9.69268 15.6201 6.41126 12.2382 3.12891C12.1646 3.05957 12.0873 2.99022 12.0015 2.91048Z" fill="white"/>
</svg>
