<svg width="26" height="24" viewBox="0 0 26 24" fill="none" xmlns="http://www.w3.org/2000/svg">
<path d="M26 8.69056C25.9104 9.21836 25.8475 9.74616 25.726 10.2647C25.4051 11.6324 24.7605 12.8417 23.9558 13.9593C22.7138 15.6866 21.2036 17.1466 19.6451 18.5538C17.8073 20.2129 15.964 21.8647 14.1152 23.5092C13.4064 24.1419 12.6443 24.169 11.961 23.5548C9.55903 21.3928 7.15066 19.2373 4.77852 17.041C3.55813 15.9122 2.46232 14.6541 1.56864 13.2211C-0.035036 10.654 -0.469165 7.90545 0.545922 5.01046C1.46376 2.39454 3.2454 0.683806 5.92137 0.148088C8.69458 -0.407423 10.9282 0.623769 12.7015 2.8412C12.7988 2.96193 12.8884 3.08926 13.0066 3.24694C13.1153 3.10312 13.21 2.97381 13.3086 2.85109C14.3364 1.54478 15.5904 0.588142 17.1941 0.193611C19.9908 -0.493191 22.9586 0.721412 24.573 3.18295C25.3701 4.40019 25.8119 5.74344 25.9542 7.20084C25.9638 7.29518 25.9847 7.38821 26 7.48123V8.69056ZM13.0028 22.4088C13.0632 22.358 13.0969 22.3309 13.1299 22.3026C15.2021 20.4427 17.2875 18.5987 19.3425 16.7178C20.7587 15.422 22.103 14.0484 23.1562 12.401C24.1599 10.8255 24.6563 9.11082 24.4275 7.21271C24.1802 5.16748 23.3355 3.464 21.5837 2.39256C19.9508 1.3937 18.227 1.27099 16.4917 2.13328C15.4659 2.64327 14.7082 3.4772 14.0764 4.44241C14.0192 4.5295 13.9664 4.61989 13.9111 4.70631C13.4058 5.51187 12.6399 5.50659 12.118 4.71819C11.808 4.23598 11.4638 3.77839 11.0883 3.3492C10.1406 2.2936 8.97553 1.66288 7.57144 1.59031C4.99845 1.45835 2.74072 3.09718 1.93412 5.64184C1.17264 8.05192 1.5305 10.2931 2.85831 12.3918C3.68462 13.7001 4.70161 14.8434 5.81268 15.8885C7.53203 17.4996 9.28825 19.0685 11.0318 20.6512C11.6801 21.2377 12.3373 21.815 13.0028 22.4088Z" fill="white"/>
</svg>
