<svg width="25" height="26" viewBox="0 0 25 26" fill="none" xmlns="http://www.w3.org/2000/svg">
<path d="M11.7164 0.886719H13.279C13.3406 0.904421 13.4034 0.917732 13.4669 0.926551C15.5853 1.08654 17.544 1.73561 19.3101 2.91101C22.3113 4.90983 24.1531 7.68767 24.8082 11.2413C24.8923 11.6984 24.9387 12.1555 25 12.6158V14.1308C24.9826 14.2005 24.9693 14.2711 24.9602 14.3423C24.7984 16.524 24.1486 18.5542 22.8874 20.3368C19.8536 24.6244 15.6904 26.4502 10.4911 25.7358C7.65628 25.344 5.25466 24.0028 3.32475 21.8864C0.693474 19.0002 -0.37065 15.5837 0.113458 11.7095C0.425975 9.21176 1.45226 7.01117 3.1238 5.13119C5.0661 2.94366 7.48077 1.58151 10.3658 1.07805C10.8141 0.997728 11.2662 0.952018 11.7164 0.886719ZM21.8448 19.6323C24.6053 15.6986 24.6301 9.29208 20.0832 5.08222C15.7119 1.03364 8.75302 1.18644 4.53372 5.44332C0.260908 9.75701 0.551242 15.984 3.15446 19.6277C4.75293 17.3174 6.90271 15.775 9.62272 15.0169C7.00123 13.1709 6.85052 9.47296 8.94288 7.37293C9.87948 6.43467 11.1485 5.90478 12.4737 5.89867C13.7988 5.89255 15.0727 6.4107 16.0179 7.34028C18.122 9.39982 18.0359 13.1454 15.3779 15.0175C18.0972 15.7783 20.2457 17.3213 21.8448 19.6323ZM21.0332 20.7097C19.4151 17.9893 16.2189 15.792 12.2736 15.9122C8.6656 16.0219 5.91623 17.6987 3.94261 20.6914C8.42811 26.0271 16.7069 25.9187 21.0332 20.7097ZM12.5 14.6532C13.2423 14.6523 13.9677 14.431 14.5843 14.0172C15.2009 13.6035 15.681 13.016 15.9639 12.3291C16.2467 11.6422 16.3196 10.8867 16.1733 10.1583C16.027 9.42993 15.668 8.76135 15.1419 8.23723C14.6157 7.7131 13.946 7.35699 13.2176 7.21396C12.4891 7.07093 11.7346 7.14742 11.0496 7.43374C10.3646 7.72006 9.77991 8.20335 9.36946 8.82243C8.95902 9.4415 8.74131 10.1685 8.74389 10.9115C8.75111 11.9047 9.14971 12.8549 9.85305 13.5555C10.5564 14.2561 11.5076 14.6506 12.5 14.6532Z" fill="white"/>
</svg>
